<svg width="32" height="32" viewBox="0 0 32 32" fill="none" xmlns="http://www.w3.org/2000/svg">
<path d="M31.5997 10.9754C30.7299 5.55985 26.4401 1.2701 21.0245 0.400294C19.3886 0.137569 17.7109 0 16 0C14.2891 0 12.6114 0.137525 10.9755 0.400294C5.55989 1.2701 1.2701 5.55985 0.400287 10.9754C0.137562 12.6113 0 14.289 0 16C0 17.7109 0.137518 19.3887 0.400287 21.0246C1.2701 26.4402 5.55993 30.7299 10.9755 31.5997C12.6114 31.8624 14.2891 32 16 32C17.7109 32 19.3886 31.8625 21.0245 31.5997C26.4401 30.7299 30.7299 26.4402 31.5997 21.0246C31.8624 19.3887 32 17.7109 32 16C32 14.289 31.8625 12.6113 31.5997 10.9754Z" fill="url(#paint0_linear_5997_113656)"/>
<path d="M13.6047 20.8884H5.68607C5.13049 20.8884 4.63411 20.5568 4.4215 20.0435C4.20889 19.5302 4.32538 18.9446 4.71825 18.5518L10.2032 13.0669H6.27202C5.19209 13.0669 4.31665 12.1915 4.31665 11.1116H11.6193C12.1749 11.1116 12.6712 11.4432 12.8839 11.9565C13.0965 12.4697 12.9801 13.0552 12.5873 13.4482L7.10235 18.9331H11.6493C12.7292 18.9331 13.6047 19.8085 13.6047 20.8884ZM27.6834 14.7779C27.6834 12.6754 25.9729 10.9649 23.8704 10.9649C22.7458 10.9649 21.7336 11.4546 21.0351 12.2317C20.3366 11.4546 19.3244 10.9649 18.1998 10.9649C16.0973 10.9649 14.3868 12.6754 14.3868 14.7779V20.8884C15.4667 20.8884 16.3422 20.013 16.3422 18.9331V14.7779C16.3422 13.7536 17.1755 12.9203 18.1998 12.9203C19.2241 12.9203 20.0574 13.7536 20.0574 14.7779V18.9331C20.0574 20.013 20.9329 20.8884 22.0128 20.8884V14.7779C22.0128 13.7536 22.8461 12.9203 23.8704 12.9203C24.8947 12.9203 25.728 13.7536 25.728 14.7779V18.9331C25.728 20.013 26.6034 20.8884 27.6834 20.8884L27.6834 14.7779Z" fill="white"/>
<defs>
<linearGradient id="paint0_linear_5997_113656" x1="7.57313" y1="30.5958" x2="24.4269" y2="1.40424" gradientUnits="userSpaceOnUse">
<stop stop-color="#0845BF"/>
<stop offset="0.6" stop-color="#0B5CFF"/>
<stop offset="1" stop-color="#4F90EE"/>
</linearGradient>
</defs>
</svg>
